# Blender v3.5.1 OBJ File: 'untitled.blend'
# www.blender.org
mtllib untitled.mtl
o mesh_Cube
v 0.866025 0.214964 -0.500000
v 0.500000 0.214964 -0.866025
v 0.500000 -0.081631 -0.866025
v 0.866025 -0.081631 -0.500000
v 1.000000 0.214964 0.000000
v 0.500000 0.214964 0.866025
v 0.866025 0.214964 0.500000
v 1.000000 -0.081631 0.000000
v 0.866025 -0.081631 0.500000
v 0.500000 -0.081631 0.866025
v -0.000000 0.214964 -1.000000
v -0.500000 0.214964 -0.866025
v -0.866025 0.214964 -0.500000
v -0.000000 -0.081631 -1.000000
v -0.866025 -0.081631 -0.500000
v -0.500000 -0.081631 -0.866025
v -1.000000 0.214964 0.000000
v -0.000000 0.214964 1.000000
v -0.866025 0.214964 0.500000
v -0.500000 0.214964 0.866025
v -0.000000 -0.081631 1.000000
v -1.000000 -0.081631 0.000000
v -0.500000 -0.081631 0.866025
v -0.866025 -0.081631 0.500000
vt 0.397519 0.882462
vt 0.220018 0.779982
vt 0.117538 0.602480
vt 0.117538 0.397520
vt 0.220018 0.220018
vt 0.397520 0.117538
vt 0.602480 0.117538
vt 0.779982 0.220018
vt 0.882462 0.397520
vt 0.882462 0.602481
vt 0.779982 0.779982
vt 0.602480 0.882462
vt 0.338801 0.984166
vt 0.161299 0.881686
vt 0.118314 0.838701
vt 0.015834 0.661199
vt 0.000100 0.602480
vt 0.000100 0.397520
vt 0.999900 0.602480
vt 0.999900 0.397520
vt 0.984166 0.338801
vt 0.881686 0.161299
vt 0.838701 0.118314
vt 0.661199 0.015834
vt 0.984166 0.661199
vt 0.881686 0.838701
vt 0.838701 0.881686
vt 0.661199 0.984166
vt 0.602480 0.999900
vt 0.397519 0.999900
vt 0.015834 0.338801
vt 0.118314 0.161299
vt 0.161299 0.118314
vt 0.338801 0.015834
vt 0.397520 0.000100
vt 0.602480 0.000100
vn 0.0000 1.0000 -0.0000
vn 0.9659 0.0000 -0.2588
vn 0.7071 -0.0000 -0.7071
vn 0.2588 -0.0000 -0.9659
vn -0.2588 -0.0000 0.9659
vn -0.7071 -0.0000 0.7071
vn -0.9659 0.0000 0.2588
vn 0.2588 0.0000 0.9659
vn 0.7071 0.0000 0.7071
vn 0.9659 -0.0000 0.2588
vn -0.2588 0.0000 -0.9659
vn -0.7071 0.0000 -0.7071
vn -0.9659 -0.0000 -0.2588
usemtl Material
s off
f 5/1/1 1/2/1 2/3/1 11/4/1 12/5/1 13/6/1 17/7/1 19/8/1 20/9/1 18/10/1 6/11/1 7/12/1
f 5/1/2 8/13/2 4/14/2 1/2/2
f 1/2/3 4/15/3 3/16/3 2/3/3
f 2/3/4 3/17/4 14/18/4 11/4/4
f 21/19/5 18/10/5 20/9/5 23/20/5
f 23/21/6 20/9/6 19/8/6 24/22/6
f 24/23/7 19/8/7 17/7/7 22/24/7
f 18/10/8 21/25/8 10/26/8 6/11/8
f 6/11/9 10/27/9 9/28/9 7/12/9
f 7/12/10 9/29/10 8/30/10 5/1/10
f 11/4/11 14/31/11 16/32/11 12/5/11
f 12/5/12 16/33/12 15/34/12 13/6/12
f 13/6/13 15/35/13 22/36/13 17/7/13
